<?xml version="1.0" encoding="UTF-8" standalone="no"?>
<svg
   xmlns:dc="http://purl.org/dc/elements/1.1/"
   xmlns:cc="http://creativecommons.org/ns#"
   xmlns:rdf="http://www.w3.org/1999/02/22-rdf-syntax-ns#"
   xmlns:svg="http://www.w3.org/2000/svg"
   xmlns="http://www.w3.org/2000/svg"
   id="svg1331"
   viewBox="0 0 685.77 582.322"
   version="1.1"
   height="164.34422mm"
   width="193.53857mm">
  <metadata
     id="metadata1337">
    <rdf:RDF>
      <cc:Work
         rdf:about="">
        <dc:format>image/svg+xml</dc:format>
        <dc:type
           rdf:resource="http://purl.org/dc/dcmitype/StillImage" />
        <dc:title></dc:title>
      </cc:Work>
    </rdf:RDF>
  </metadata>
  <defs
     id="defs1335" />
  <g
     transform="translate(-31.401,-33.55576)"
     id="g1095">
    <path
       d="m 298.81,493.84 151.57,3.4269 12.462,118.61 h -177.11 z"
       id="path1079"
       style="fill:#f2f2f2" />
    <path
       d="m 298.81,493.84 -3.9596,36.93 h 159.05 l -3.52,-33.502 -151.57,-3.428 z"
       id="path1081"
       style="fill:#cccccc" />
    <rect
       transform="scale(1,-1)"
       x="31.502001"
       y="-522.27002"
       width="685.57001"
       height="450.14001"
       ry="31.215"
       id="rect1083"
       style="fill:#ffffff;fill-rule:evenodd" />
    <path
       d="m 31.401,62.617 v 396.88 h 685.77 V 62.617 Z m 16.165,20.51 h 650.46 l -87.235,326.89 -487.45,-32.603 z"
       id="path1085"
       style="fill:#333333;fill-rule:evenodd" />
    <rect
       x="31.419001"
       y="33.554001"
       width="685.71997"
       height="188.97"
       ry="35.485001"
       id="rect1087"
       style="fill:#333333" />
    <rect
       x="59.136002"
       y="63.706001"
       width="630.29999"
       height="363.17001"
       id="rect1089"
       style="fill:#ececec;fill-rule:evenodd" />
    <rect
       x="234.62"
       y="597.90997"
       width="279.32999"
       height="17.969"
       ry="5.1943002"
       id="rect1091"
       style="fill:#ffffff" />
    <circle
       cx="374.29001"
       cy="491.67999"
       r="17.622999"
       id="circle1093"
       style="fill:#333333" />
  </g>
  <rect
     x="27.722132"
     y="30.123238"
     width="630.35999"
     height="363.20999"
     id="rect1097"
     style="fill:#ffffff;fill-rule:evenodd" />
  <rect
     x="27.722132"
     y="30.123238"
     width="85.891998"
     height="363.20999"
     id="rect1099"
     style="fill:#4dd0e1;fill-rule:evenodd" />
  <rect
     x="27.722132"
     y="30.123238"
     width="630.35999"
     height="16.221001"
     id="rect1101"
     style="fill:#0097a7;fill-rule:evenodd" />
  <rect
     x="131.77214"
     y="82.653244"
     width="514.20001"
     height="163.2"
     id="rect1103"
     style="fill:#e6e6e6;fill-rule:evenodd" />
  <rect
     x="131.77214"
     y="56.943237"
     width="514.20001"
     height="16.77"
     id="rect1105"
     style="fill:#00bcd4;fill-rule:evenodd" />
  <rect
     x="136.77216"
     y="90.513245"
     width="503.48001"
     height="116.77"
     id="rect1107"
     style="fill:#ffffff;fill-rule:evenodd" />
  <rect
     x="195.34213"
     y="90.513245"
     width="60.625999"
     height="116.77"
     id="rect1109"
     style="fill:#f2f2f2;fill-rule:evenodd" />
  <rect
     x="320.34216"
     y="90.513245"
     width="60.625999"
     height="116.77"
     id="rect1111"
     style="fill:#f2f2f2;fill-rule:evenodd" />
  <rect
     x="446.77216"
     y="90.513245"
     width="60.625999"
     height="116.77"
     id="rect1113"
     style="fill:#f2f2f2;fill-rule:evenodd" />
  <rect
     x="575.34216"
     y="90.513245"
     width="60.625999"
     height="116.77"
     id="rect1115"
     style="fill:#f2f2f2;fill-rule:evenodd" />
  <rect
     x="307.91214"
     y="214.08327"
     width="7.0541"
     height="24.627001"
     id="rect1117"
     style="fill:#cccccc;fill-rule:evenodd" />
  <rect
     x="478.91211"
     y="214.08327"
     width="7.0541"
     height="24.627001"
     id="rect1119"
     style="fill:#cccccc;fill-rule:evenodd" />
  <rect
     x="136.77216"
     y="109.08324"
     width="503.48001"
     height="3.1982"
     id="rect1121"
     style="fill:#cfd8dc;fill-rule:evenodd" />
  <rect
     x="136.77216"
     y="134.08324"
     width="503.48001"
     height="3.1982"
     id="rect1123"
     style="fill:#cfd8dc;fill-rule:evenodd" />
  <rect
     x="136.77216"
     y="159.08325"
     width="503.48001"
     height="3.1982"
     id="rect1125"
     style="fill:#cfd8dc;fill-rule:evenodd" />
  <rect
     x="136.77216"
     y="184.08325"
     width="503.48001"
     height="3.1982"
     id="rect1127"
     style="fill:#cfd8dc;fill-rule:evenodd" />
  <rect
     x="140.79214"
     y="160.70325"
     width="26.280001"
     height="46.578999"
     id="rect1129"
     style="fill:#26c6da;fill-rule:evenodd" />
  <rect
     x="172.00214"
     y="146.57324"
     width="26.280001"
     height="60.706001"
     id="rect1131"
     style="fill:#26c6da;fill-rule:evenodd" />
  <rect
     x="203.22214"
     y="152.13324"
     width="26.280001"
     height="55.150002"
     id="rect1133"
     style="fill:#26c6da;fill-rule:evenodd" />
  <rect
     x="234.43216"
     y="150.61324"
     width="26.280001"
     height="56.666"
     id="rect1135"
     style="fill:#26c6da;fill-rule:evenodd" />
  <rect
     x="265.64215"
     y="143.04324"
     width="26.280001"
     height="64.241997"
     id="rect1137"
     style="fill:#26c6da;fill-rule:evenodd" />
  <rect
     x="296.85214"
     y="141.02324"
     width="26.280001"
     height="66.262001"
     id="rect1139"
     style="fill:#26c6da;fill-rule:evenodd" />
  <rect
     x="328.07214"
     y="152.18324"
     width="26.280001"
     height="55.092999"
     id="rect1141"
     style="fill:#26c6da;fill-rule:evenodd" />
  <rect
     x="359.28217"
     y="135.51324"
     width="26.280001"
     height="71.766998"
     id="rect1143"
     style="fill:#26c6da;fill-rule:evenodd" />
  <rect
     x="390.49213"
     y="130.00323"
     width="26.280001"
     height="77.272003"
     id="rect1145"
     style="fill:#26c6da;fill-rule:evenodd" />
  <rect
     x="421.71216"
     y="120.51324"
     width="26.280001"
     height="86.766998"
     id="rect1147"
     style="fill:#26c6da;fill-rule:evenodd" />
  <rect
     x="452.92212"
     y="124.55324"
     width="26.280001"
     height="82.725998"
     id="rect1149"
     style="fill:#26c6da;fill-rule:evenodd" />
  <rect
     x="484.13214"
     y="112.43324"
     width="26.280001"
     height="94.848"
     id="rect1151"
     style="fill:#26c6da;fill-rule:evenodd" />
  <rect
     x="515.35217"
     y="117.48325"
     width="26.280001"
     height="89.797997"
     id="rect1153"
     style="fill:#26c6da;fill-rule:evenodd" />
  <rect
     x="546.56213"
     y="111.92323"
     width="26.280001"
     height="95.352997"
     id="rect1155"
     style="fill:#26c6da;fill-rule:evenodd" />
  <rect
     x="577.77216"
     y="106.37325"
     width="26.280001"
     height="100.91"
     id="rect1157"
     style="fill:#26c6da;fill-rule:evenodd" />
  <rect
     x="608.99213"
     y="99.303238"
     width="26.280001"
     height="107.98"
     id="rect1159"
     style="fill:#26c6da;fill-rule:evenodd" />
  <rect
     x="172.40213"
     y="213.64326"
     width="36.785999"
     height="5.7143002"
     ry="1.0102"
     id="rect1161"
     style="fill:#7cb342" />
  <rect
     x="176.71216"
     y="223.54326"
     width="72.857002"
     height="11.612"
     ry="1.4161"
     id="rect1163"
     style="fill:#26a69a" />
  <rect
     x="356.68216"
     y="213.64326"
     width="36.785999"
     height="5.7143002"
     ry="1.0102"
     id="rect1165"
     style="fill:#7cb342" />
  <rect
     x="361.00214"
     y="223.54326"
     width="72.857002"
     height="11.612"
     ry="1.4161"
     id="rect1167"
     style="fill:#26a69a" />
  <rect
     x="492.40216"
     y="213.64326"
     width="36.785999"
     height="5.7143002"
     ry="1.0102"
     id="rect1169"
     style="fill:#7cb342" />
  <rect
     x="503.85217"
     y="223.54326"
     width="80.357002"
     height="11.612"
     ry="1.4161"
     id="rect1171"
     style="fill:#26a69a" />
  <rect
     x="601.71216"
     y="223.54326"
     width="27.143"
     height="11.612"
     ry="1.4161"
     id="rect1173"
     style="fill:#26a69a" />
  <rect
     x="131.77214"
     y="255.51326"
     width="264.69"
     height="63.698002"
     id="rect1175"
     style="fill:#b2ebf2;fill-rule:evenodd" />
  <rect
     x="131.77214"
     y="255.51326"
     width="264.69"
     height="18.976"
     id="rect1177"
     style="fill:#00bcd4;fill-rule:evenodd" />
  <rect
     x="131.77214"
     y="330.26328"
     width="264.69"
     height="62.688"
     id="rect1179"
     style="fill:#b2ebf2;fill-rule:evenodd" />
  <rect
     x="131.77214"
     y="330.26328"
     width="264.69"
     height="18.976"
     id="rect1181"
     style="fill:#00bcd4;fill-rule:evenodd" />
  <rect
     x="29.995127"
     y="50.523239"
     width="79.579002"
     height="16.549999"
     id="rect1183"
     style="fill:#00acc1;fill-rule:evenodd" />
  <rect
     x="29.995127"
     y="71.233246"
     width="79.579002"
     height="16.549999"
     id="rect1185"
     style="fill:#00acc1;fill-rule:evenodd" />
  <rect
     x="29.995127"
     y="91.953232"
     width="79.579002"
     height="16.549999"
     id="rect1187"
     style="fill:#00acc1;fill-rule:evenodd" />
  <rect
     x="29.995127"
     y="111.95323"
     width="79.579002"
     height="16.549999"
     id="rect1189"
     style="fill:#00acc1;fill-rule:evenodd" />
  <rect
     x="29.995127"
     y="131.59323"
     width="79.579002"
     height="16.549999"
     id="rect1191"
     style="fill:#00acc1;fill-rule:evenodd" />
  <rect
     x="29.995127"
     y="151.59323"
     width="79.579002"
     height="16.549999"
     id="rect1193"
     style="fill:#00acc1;fill-rule:evenodd" />
  <rect
     x="29.995127"
     y="171.23325"
     width="79.579002"
     height="16.549999"
     id="rect1195"
     style="fill:#00acc1;fill-rule:evenodd" />
  <rect
     x="29.995127"
     y="191.23325"
     width="79.579002"
     height="16.549999"
     id="rect1197"
     style="fill:#00acc1;fill-rule:evenodd" />
  <rect
     x="32.852135"
     y="53.023239"
     width="12.436"
     height="10.835"
     id="rect1199"
     style="fill:#0097a7;fill-rule:evenodd" />
  <rect
     x="32.852135"
     y="73.733246"
     width="12.436"
     height="10.835"
     id="rect1201"
     style="fill:#0097a7;fill-rule:evenodd" />
  <rect
     x="32.852135"
     y="94.803238"
     width="12.436"
     height="10.835"
     id="rect1203"
     style="fill:#0097a7;fill-rule:evenodd" />
  <rect
     x="32.852135"
     y="114.80324"
     width="12.436"
     height="10.835"
     id="rect1205"
     style="fill:#0097a7;fill-rule:evenodd" />
  <rect
     x="32.852135"
     y="134.45323"
     width="12.436"
     height="10.835"
     id="rect1207"
     style="fill:#0097a7;fill-rule:evenodd" />
  <rect
     x="32.852135"
     y="153.73325"
     width="12.436"
     height="10.835"
     id="rect1209"
     style="fill:#0097a7;fill-rule:evenodd" />
  <rect
     x="32.852135"
     y="173.38324"
     width="12.436"
     height="10.835"
     id="rect1211"
     style="fill:#0097a7;fill-rule:evenodd" />
  <rect
     x="32.852135"
     y="194.04324"
     width="12.436"
     height="10.835"
     id="rect1213"
     style="fill:#0097a7;fill-rule:evenodd" />
  <circle
     cx="636.73218"
     cy="65.273239"
     r="6.566"
     id="circle1215"
     style="fill:#00838f" />
  <path
     d="m 637.01213,61.02324 -4.5027,6.7626 h 9.0251 z"
     id="path1217"
     style="fill:#00bcd4;fill-rule:evenodd" />
  <circle
     cx="383.50214"
     cy="265.24326"
     r="6.566"
     id="circle1219"
     style="fill:#00838f" />
  <path
     d="m 383.77213,260.98324 -4.5027,6.7626 h 9.0251 z"
     id="path1221"
     style="fill:#00bcd4;fill-rule:evenodd" />
  <circle
     cx="383.50214"
     cy="339.52325"
     r="6.566"
     id="circle1223"
     style="fill:#00838f" />
  <path
     d="m 383.77213,335.27324 -4.5027,6.7626 h 9.0251 z"
     id="path1225"
     style="fill:#00bcd4;fill-rule:evenodd" />
  <rect
     x="177.48215"
     y="260.05328"
     width="53.470001"
     height="14.43"
     ry="3.0357001"
     id="rect1227"
     style="fill:#00acc1;fill-rule:evenodd" />
  <rect
     x="136.41214"
     y="260.05328"
     width="53.470001"
     height="14.43"
     ry="3.0357001"
     id="rect1229"
     style="fill:#0097a7;fill-rule:evenodd" />
  <rect
     x="177.48215"
     y="334.70328"
     width="53.470001"
     height="14.43"
     ry="3.0357001"
     id="rect1231"
     style="fill:#00acc1;fill-rule:evenodd" />
  <rect
     x="136.41214"
     y="334.70328"
     width="53.470001"
     height="14.43"
     ry="3.0357001"
     id="rect1233"
     style="fill:#0097a7;fill-rule:evenodd" />
  <rect
     x="32.852135"
     y="32.663239"
     width="12.436"
     height="10.835"
     ry="4.2856998"
     id="rect1235"
     style="fill:#ffffff;fill-rule:evenodd" />
  <rect
     x="48.566139"
     y="34.803238"
     width="104.58"
     height="7.0853"
     id="rect1237"
     style="fill:#ffffff;fill-rule:evenodd" />
  <rect
     x="168.21216"
     y="32.663239"
     width="12.436"
     height="10.835"
     ry="4.2856998"
     id="rect1239"
     style="fill:#ffffff;fill-rule:evenodd" />
  <path
     d="m 179.88213,40.68324 c -0.4951,2.2233 0.96293,3.1132 2.6339,4.1964 -3.2345,-0.0414 -5.4841,-0.67384 -6.3393,-2.1429 z"
     id="path1241"
     style="fill:#ffffff;fill-rule:evenodd" />
  <rect
     x="186.06213"
     y="34.803238"
     width="38.507"
     height="7.0853"
     id="rect1243"
     style="fill:#00838f;fill-rule:evenodd" />
  <rect
     x="260.35214"
     y="34.803238"
     width="54.936001"
     height="7.0853"
     id="rect1245"
     style="fill:#00838f;fill-rule:evenodd" />
  <rect
     x="406.58215"
     y="255.51326"
     width="238.98"
     height="129.36"
     id="rect1247"
     style="fill:#b2ebf2;fill-rule:evenodd" />
  <rect
     x="406.58215"
     y="255.51326"
     width="238.98"
     height="18.976"
     id="rect1249"
     style="fill:#00bcd4;fill-rule:evenodd" />
  <circle
     cx="635.03217"
     cy="265.24326"
     r="6.566"
     id="circle1251"
     style="fill:#00838f" />
  <path
     d="m 635.30213,260.98324 -4.5027,6.7626 h 9.0251 z"
     id="path1253"
     style="fill:#00bcd4;fill-rule:evenodd" />
  <rect
     x="500.22217"
     y="260.05328"
     width="53.470001"
     height="14.43"
     ry="3.0357001"
     id="rect1255"
     style="fill:#4dd0e1;fill-rule:evenodd" />
  <rect
     x="457.29211"
     y="260.05328"
     width="53.470001"
     height="14.43"
     ry="3.0357001"
     id="rect1257"
     style="fill:#00acc1;fill-rule:evenodd" />
  <rect
     x="416.22211"
     y="260.05328"
     width="53.470001"
     height="14.43"
     ry="3.0357001"
     id="rect1259"
     style="fill:#0097a7;fill-rule:evenodd" />
  <rect
     x="29.995127"
     y="211.13326"
     width="79.579002"
     height="16.549999"
     id="rect1261"
     style="fill:#00acc1;fill-rule:evenodd" />
  <rect
     x="29.995127"
     y="231.13326"
     width="79.579002"
     height="16.549999"
     id="rect1263"
     style="fill:#00acc1;fill-rule:evenodd" />
  <rect
     x="32.852135"
     y="213.28325"
     width="12.436"
     height="10.835"
     id="rect1265"
     style="fill:#0097a7;fill-rule:evenodd" />
  <rect
     x="32.852135"
     y="233.94325"
     width="12.436"
     height="10.835"
     id="rect1267"
     style="fill:#0097a7;fill-rule:evenodd" />
  <rect
     x="139.18213"
     y="280.07327"
     width="144.28999"
     height="5.7143002"
     ry="1.0102"
     id="rect1269"
     style="fill:#4caf50" />
  <rect
     x="139.18213"
     y="293.28326"
     width="73.570999"
     height="5.7143002"
     ry="1.0102"
     id="rect1271"
     style="fill:#4caf50" />
  <rect
     x="139.18213"
     y="306.14328"
     width="118.57"
     height="5.7143002"
     ry="1.0102"
     id="rect1273"
     style="fill:#4caf50" />
  <rect
     x="350.61215"
     y="293.28326"
     width="39.643002"
     height="5.7143002"
     ry="1.0102"
     id="rect1275"
     style="fill:#4caf50" />
  <rect
     x="350.97214"
     y="306.14328"
     width="39.643002"
     height="5.7143002"
     ry="1.0102"
     id="rect1277"
     style="fill:#4caf50" />
  <rect
     x="330.61215"
     y="280.07327"
     width="58.929001"
     height="5.7143002"
     ry="1.0102"
     id="rect1279"
     style="fill:#4caf50" />
  <rect
     x="139.18213"
     y="355.07327"
     width="47.143002"
     height="5.7143002"
     ry="1.0102"
     id="rect1281"
     style="fill:#ab47bc" />
  <rect
     x="139.18213"
     y="368.28326"
     width="88.929001"
     height="5.7143002"
     ry="1.0102"
     id="rect1283"
     style="fill:#ab47bc" />
  <rect
     x="139.18213"
     y="381.14328"
     width="118.57"
     height="5.7143002"
     ry="1.0102"
     id="rect1285"
     style="fill:#ab47bc" />
  <rect
     x="365.51215"
     y="368.28326"
     width="24.743"
     height="5.7143002"
     ry="1.0102"
     id="rect1287"
     style="fill:#ab47bc" />
  <rect
     x="365.87216"
     y="381.14328"
     width="24.743"
     height="5.7143002"
     ry="1.0102"
     id="rect1289"
     style="fill:#ab47bc" />
  <rect
     x="364.96216"
     y="355.07327"
     width="24.583"
     height="5.7143002"
     ry="1.0102"
     id="rect1291"
     style="fill:#ab47bc" />
  <rect
     x="482.63214"
     y="281.59326"
     width="144.28999"
     height="5.7143002"
     ry="1.0102"
     id="rect1293"
     style="fill:#f44336" />
  <rect
     x="482.63214"
     y="294.80328"
     width="127.5"
     height="5.7143002"
     ry="1.0102"
     id="rect1295"
     style="fill:#f44336" />
  <rect
     x="482.63214"
     y="307.66327"
     width="120.71"
     height="5.7143002"
     ry="1.0102"
     id="rect1297"
     style="fill:#f44336" />
  <rect
     x="482.63214"
     y="319.80328"
     width="60.714001"
     height="5.7143002"
     ry="1.0102"
     id="rect1299"
     style="fill:#f44336" />
  <rect
     x="482.63214"
     y="333.01328"
     width="35"
     height="5.7143002"
     ry="1.0102"
     id="rect1301"
     style="fill:#f44336" />
  <rect
     x="482.63214"
     y="345.87326"
     width="30.357"
     height="5.7143002"
     ry="1.0102"
     id="rect1303"
     style="fill:#f44336" />
  <rect
     x="482.63214"
     y="358.73328"
     width="12.857"
     height="5.7143002"
     ry="1.0102"
     id="rect1305"
     style="fill:#f44336" />
  <rect
     x="482.63214"
     y="371.94327"
     width="6.0714002"
     height="5.7143002"
     ry="1.0102"
     id="rect1307"
     style="fill:#f44336" />
  <rect
     x="417.63214"
     y="281.59326"
     width="48.320999"
     height="5.7143002"
     ry="1.0102"
     id="rect1309"
     style="fill:#4db6ac" />
  <rect
     x="417.63214"
     y="294.80328"
     width="49.213001"
     height="5.7143002"
     ry="1.0102"
     id="rect1311"
     style="fill:#4db6ac" />
  <rect
     x="417.63214"
     y="307.66327"
     width="48.929001"
     height="5.7143002"
     ry="1.0102"
     id="rect1313"
     style="fill:#4db6ac" />
  <rect
     x="417.63214"
     y="319.80328"
     width="42.856998"
     height="5.7143002"
     ry="1.0102"
     id="rect1315"
     style="fill:#4db6ac" />
  <rect
     x="417.63214"
     y="333.01328"
     width="45.714001"
     height="5.7143002"
     ry="1.0102"
     id="rect1317"
     style="fill:#4db6ac" />
  <rect
     x="417.63214"
     y="345.87326"
     width="40.714001"
     height="5.7143002"
     ry="1.0102"
     id="rect1319"
     style="fill:#4db6ac" />
  <rect
     x="417.63214"
     y="358.73328"
     width="41.785999"
     height="5.7143002"
     ry="1.0102"
     id="rect1321"
     style="fill:#4db6ac" />
  <rect
     x="417.63214"
     y="371.94327"
     width="45.714001"
     height="5.7143002"
     ry="1.0102"
     id="rect1323"
     style="fill:#4db6ac" />
  <rect
     x="246.35214"
     y="32.113235"
     width="4.375"
     height="12.054"
     id="rect1325"
     style="fill:#ffffff" />
  <rect
     transform="rotate(90)"
     x="35.953232"
     y="-254.57214"
     width="4.375"
     height="12.054"
     id="rect1327"
     style="fill:#ffffff" />
</svg>
