<?xml version="1.0" encoding="UTF-8" standalone="no"?>
<svg
   xmlns:dc="http://purl.org/dc/elements/1.1/"
   xmlns:cc="http://creativecommons.org/ns#"
   xmlns:rdf="http://www.w3.org/1999/02/22-rdf-syntax-ns#"
   xmlns:svg="http://www.w3.org/2000/svg"
   xmlns="http://www.w3.org/2000/svg"
   id="svg40"
   xml:space="preserve"
   viewBox="-26 -20 454.98002 507.27533"
   height="459.48853"
   width="408.3154"
   version="1.1"><metadata
   id="metadata44"><rdf:RDF><cc:Work
       rdf:about=""><dc:format>image/svg+xml</dc:format><dc:type
         rdf:resource="http://purl.org/dc/dcmitype/StillImage" /><dc:title></dc:title></cc:Work></rdf:RDF></metadata>
	<defs
   id="defs20">
		<clipPath
   id="hexagon">
			<path
   id="path2"
   d="M 435.279,113.284 247.191,4.692 c -10.835,-6.257 -28.567,-6.257 -39.402,0 L 19.701,113.284 C 8.865,119.539 0,134.896 0,147.408 v 217.185 c 0.843,14.571 8.286,26.639 19.701,34.123 l 188.088,108.592 c 10.835,6.257 28.567,6.257 39.402,0 L 435.279,398.716 c 12.248,-8.146 19.219,-20.408 19.701,-34.123 V 147.408 c -0.44,-13.165 -8.323,-26.443 -19.701,-34.124 z" />
		</clipPath>

		<linearGradient
   y2="235.867"
   x2="261.77249"
   y1="55.8074"
   x1="121.0946"
   gradientUnits="userSpaceOnUse"
   id="top">
			<stop
   id="stop5"
   style="stop-color: #A47EDE"
   offset="0" />
			<stop
   id="stop7"
   style="stop-color: #9866D3"
   offset="1" />
		</linearGradient>

		<linearGradient
   y2="372.77261"
   x2="443.46381"
   y1="207.291"
   x1="314.17542"
   gradientUnits="userSpaceOnUse"
   id="centre">
			<stop
   id="stop10"
   style="stop-color: #3B009B"
   offset="0" />
			<stop
   id="stop12"
   style="stop-color: #390086"
   offset="1" />
		</linearGradient>

		<linearGradient
   y2="502.09399"
   x2="252.74049"
   y1="326.16309"
   x1="115.2882"
   gradientUnits="userSpaceOnUse"
   id="bottom">
			<stop
   id="stop15"
   style="stop-color: #340084"
   offset="0" />
			<stop
   id="stop17"
   style="stop-color: #290064"
   offset="1" />
		</linearGradient>
	</defs>

	<g
   transform="translate(-26,-22.570679)"
   id="g28"
   clip-path="url(#hexagon)">
		<rect
   style="fill:url(#centre)"
   id="rect22"
   height="273.49301"
   width="267.46399"
   y="124.487"
   x="222.588" />
		<polygon
   style="fill:url(#bottom)"
   id="polygon24"
   points="-29.911,208.63 -29.911,538.353 490.052,538.353 490.052,407.802 145.845,208.63 " />
		<polygon
   style="fill:url(#top)"
   id="polygon26"
   points="490.052,-14.513 -29.911,-14.513 -29.911,405.093 490.052,104.208 " />
	</g>

	<path
   style="fill:#ffffff"
   d="M 49.83,233.43032 C 48.939,85.341321 247.289,19.951321 332.826,157.55232 l -65.635,37.98 c -39.622,-65.534 -138.001,-42.101 -141.532,37.897 1.06,73.729 97.754,107.978 141.536,37.893 l 65.635,37.979 c -75.382,130.863 -279.198,83.781 -283,-75.871 z"
   id="c" />

	<g
   transform="translate(-26,-22.570679)"
   data-name="♯"
   aria-label="♯"
   id="sharp">
		<polygon
   style="fill:#ffffff"
   id="polygon31"
   points="329.959,295.5 317.224,295.5 326,213 338.5,213 " />
		<polygon
   style="fill:#ffffff"
   id="polygon33"
   points="356.735,295.5 344,295.5 352.776,213 365.276,213 " />
		<rect
   style="fill:#ffffff"
   id="rect35"
   height="12.072"
   width="62.5"
   y="232.592"
   x="312" />
		<rect
   style="fill:#ffffff"
   id="rect37"
   height="12.072"
   width="62.5"
   y="262"
   x="308.5" />
	</g>
</svg>