<?xml version="1.0" encoding="UTF-8" standalone="no"?>
<svg
   xmlns:dc="http://purl.org/dc/elements/1.1/"
   xmlns:cc="http://creativecommons.org/ns#"
   xmlns:rdf="http://www.w3.org/1999/02/22-rdf-syntax-ns#"
   xmlns:svg="http://www.w3.org/2000/svg"
   xmlns="http://www.w3.org/2000/svg"
   xml:space="preserve"
   style="enable-background:new 0 0 189.3 166;"
   viewBox="0 0 189.3 166"
   y="0px"
   x="0px"
   id="Layer_1"
   version="1.1"><metadata
   id="metadata29"><rdf:RDF><cc:Work
       rdf:about=""><dc:format>image/svg+xml</dc:format><dc:type
         rdf:resource="http://purl.org/dc/dcmitype/StillImage" /><dc:title></dc:title></cc:Work></rdf:RDF></metadata><defs
   id="defs27" />
<path
   style="fill:#ffffff"
   id="path2"
   d="M121.3,35.3l-60.1,20c-5.7,1.9-8.8,8.1-6.9,13.8l0,0c1.9,5.7,8.1,8.8,13.8,6.9l60.1-20c5.7-1.9,8.8-8.1,6.9-13.8l0,0  C133.2,36.5,127,33.4,121.3,35.3z" />
<path
   style="fill:#ffffff"
   id="path4"
   d="M121.3,0.6l-60.1,20c-5.7,1.9-8.8,8.1-6.9,13.8l0,0c1.9,5.7,8.1,8.8,13.8,6.9l60.1-20c5.7-1.9,8.8-8.1,6.9-13.8l0,0  C133.2,1.8,127-1.3,121.3,0.6z" />
<path
   style="fill:#ffffff"
   id="path6"
   d="M121.3,70L61.1,90c-5.7,1.9-8.8,8.1-6.9,13.8l0,0c1.9,5.7,8.1,8.8,13.8,6.9l60.1-20c5.7-1.9,8.8-8.1,6.9-13.8l0,0  C133.2,71.2,127,68.1,121.3,70z" />
<polygon
   style="fill:#ffffff"
   id="polygon8"
   points="7.3,154.7 20.1,154.7 20.1,148.9 7.3,148.9 7.3,144 20.6,144 20.6,138.4 0,138.4 0,165.4 20.8,165.4 20.8,159.7   7.3,159.7 " />
<rect
   style="fill:#ffffff"
   id="rect10"
   height="27"
   width="7.3"
   y="138.4"
   x="52.7" />
<path
   style="fill:#ffffff"
   id="path12"
   d="M71.1,151.7c0.2-9,9.2-10.1,15.2-6.7l0.5-5.8v0c-10.3-3.9-23.2-0.4-23.2,12.4c-0.1,13.1,12.7,16.5,23.3,13.1l-0.4-5.9  C80.5,162,71,160.7,71.1,151.7z" />
<path
   style="fill:#ffffff"
   id="path14"
   d="M97.2,145.5c0-3.2,7-3.1,10.7-1.1l0.5-5.6l0,0c-8.9-2.7-18.7-0.6-18.7,7.3c0,9.6,12.6,7.2,12.6,11.5c0,3.9-6.9,3.4-11.7,1.2  l-0.5,6c7.7,2.3,19.6,2.2,19.6-7.8C109.7,146.9,97.2,150.3,97.2,145.5z" />
<path
   style="fill:#ffffff"
   id="path16"
   d="M119.4,145.5c0-3.2,7-3.1,10.7-1.1l0.5-5.6l0,0c-8.9-2.7-18.7-0.6-18.7,7.3c0,9.6,12.6,7.2,12.6,11.5  c0,3.9-6.9,3.4-11.7,1.2l-0.6,6c7.7,2.3,19.7,2.2,19.7-7.8C131.9,146.9,119.4,150.3,119.4,145.5z" />
<polygon
   style="fill:#ffffff"
   id="polygon18"
   points="182.6,138.4 182.6,155.8 173.7,138.4 164.4,138.4 164.4,165.4 171.2,165.4 171.2,147.6 180.5,165.4 189.3,165.4   189.3,138.4 " />
<path
   style="fill:#ffffff"
   id="path20"
   d="M147.4,137.7c-7.6,0-13.4,4.5-13.4,14.2c0,9.4,5.8,14.1,13.4,14.1c7.6,0,13.4-4.8,13.4-14.1  C160.9,142.2,155.1,137.7,147.4,137.7z M147.4,160.7c-4.1,0-5.9-4.7-5.9-8.8c0-4.1,1.8-8.8,5.9-8.8c4.1,0,5.9,5,5.9,8.8  C153.3,156,151.6,160.7,147.4,160.7z" />
<path
   style="fill:#ffffff"
   id="path22"
   d="M43.1,152.1c3.1-0.9,4.7-2.9,4.7-6.5c0-5.6-5-7.2-8.6-7.2H26l0,0v27h7.2v-10.2c0-0.1,1.8,0,2.9,0c1.3,0,2.2,0.8,2.7,2.1  l2.8,8.1h7.8c0,0-3.8-10.5-3.8-10.6C44.8,152.8,43.2,152.1,43.1,152.1z M37,149.7h-4v-6h4.1c1.9,0,3.3,1.2,3.3,3  C40.5,148.7,38.8,149.8,37,149.7z" />
</svg>