<?xml version="1.0" encoding="UTF-8" standalone="no"?>
<svg
   xmlns:dc="http://purl.org/dc/elements/1.1/"
   xmlns:cc="http://creativecommons.org/ns#"
   xmlns:rdf="http://www.w3.org/1999/02/22-rdf-syntax-ns#"
   xmlns:svg="http://www.w3.org/2000/svg"
   xmlns="http://www.w3.org/2000/svg"
   xml:space="preserve"
   enable-background="new 0 0 1029.4 231.3"
   viewBox="0 0 1029.4 231.3"
   y="0px"
   x="0px"
   id="Layer_1"
   version="1.1"><metadata
   id="metadata241"><rdf:RDF><cc:Work
       rdf:about=""><dc:format>image/svg+xml</dc:format><dc:type
         rdf:resource="http://purl.org/dc/dcmitype/StillImage" /><dc:title></dc:title></cc:Work></rdf:RDF></metadata><defs
   id="defs239" />
<g
   style="fill:#ffffff"
   id="g234">
	<g
   style="fill:#ffffff"
   id="g8">
		<path
   style="fill:#ffffff"
   id="path2"
   d="M0,144.3" />
		<path
   style="fill:#ffffff"
   id="path4"
   d="M139.8,128c-3.9,2.9-24.3,18.6-57.2,18.6c-41.7,0-72.6-30-72.6-72.8C10,35.6,35.4,0,84.4,0c25.1,0,41.5,8,51.7,18    l-13.9,18.2c-6.5-5.3-19.6-13.5-38.2-13.5c-29.4,0-48.2,22.6-48.2,50.7c0,34.6,23.3,51.3,47.6,51.3c19.4,0,31.1-7.8,33.1-9.2V89.1    h-35V68.1h58.3V128z" />
		<path
   style="fill:#ffffff"
   id="path6"
   d="M156,144.3" />
	</g>
	<g
   style="fill:#ffffff"
   id="g16">
		<path
   style="fill:#ffffff"
   id="path10"
   d="M145.5,144.3" />
		<path
   style="fill:#ffffff"
   id="path12"
   d="M264.9,92.6c0,29.4-23.5,53.3-55.4,53.3c-31.5,0-54.8-23.5-54.8-52.9v-0.4c0-29.6,23.5-53.6,55.2-53.6    c31.7,0,55,23.7,55,53.3V92.6z M241.2,93v-0.4c0-18.2-13.1-32.9-31.7-32.9c-19,0-31.1,14.5-31.1,32.5v0.4    c0,18,13.1,32.7,31.5,32.7C229.1,125.3,241.2,110.8,241.2,93z" />
		<path
   style="fill:#ffffff"
   id="path14"
   d="M274.1,144.3" />
	</g>
	<g
   style="fill:#ffffff"
   id="g24">
		<path
   style="fill:#ffffff"
   id="path18"
   d="M263.5,144.3" />
		<rect
   style="fill:#ffffff"
   id="rect20"
   height="142.9"
   width="23.7"
   y="1.4"
   x="279.8" />
		<path
   style="fill:#ffffff"
   id="path22"
   d="M319.7,144.3" />
	</g>
	<g
   style="fill:#ffffff"
   id="g32">
		<path
   style="fill:#ffffff"
   id="path26"
   d="M309.1,144.3" />
		<path
   style="fill:#ffffff"
   id="path28"
   d="M426.4,144.3h-22.5v-13.7c-6.1,9.4-20,15.9-34.5,15.9c-27.2,0-51.1-19.4-51.1-53.6v-0.6c0-25.1,14.9-53.4,52.1-53.4    c14.5,0,27.2,6.1,32.3,13.9V1.4h23.7V144.3z M403.1,92.6c0-22.5-16.1-32.9-30.5-32.9c-14.1,0-30.3,9.8-30.3,32.7    c0,17.7,11.4,33.1,30.7,33.1C391.7,125.5,403.1,112,403.1,92.6z" />
		<path
   style="fill:#ffffff"
   id="path30"
   d="M441.1,144.3" />
	</g>
	<g
   style="fill:#ffffff"
   id="g40">
		<path
   style="fill:#ffffff"
   id="path34"
   d="M432.9,144.3" />
		<path
   style="fill:#ffffff"
   id="path36"
   d="M521.6,114.3c0,20.8-16.8,31.9-38.4,31.9c-25.1,0-41.9-11.6-43.5-13.3l10.2-16.8c10.8,7.4,22.7,11,33.3,11    c9.8,0,14.3-4.3,14.3-11.4c0-7.6-9-10-21.1-14.5c-16-5.9-31.9-11.2-31.9-30.3v-0.4c0-19.6,16.6-31.7,37.2-31.7    c12.9,0,27.2,3.5,38.2,10.8l-9,17.4c-10-6.1-20.8-9-28.2-9c-9,0-14.5,3.7-14.5,10.4c0,8.6,14.1,11.9,21.7,14.7    C504.9,88.5,521.6,95,521.6,114.3z" />
		<path
   style="fill:#ffffff"
   id="path38"
   d="M530.8,144.3" />
	</g>
	<g
   style="fill:#ffffff"
   id="g44">
		<path
   style="fill:#ffffff"
   id="path42"
   d="M707,144.3" />
	</g>
	<g
   style="fill:#ffffff"
   id="g52">
		<rect
   style="fill:#ffffff"
   id="rect46"
   height="22.9"
   width="23.7"
   y="7.3"
   x="713.8" />
		<rect
   style="fill:#ffffff"
   id="rect48"
   height="103.4"
   width="23.7"
   y="41"
   x="713.8" />
		<path
   style="fill:#ffffff"
   id="path50"
   d="M753.6,144.3" />
	</g>
	<g
   style="fill:#ffffff"
   id="g60">
		<path
   style="fill:#ffffff"
   id="path54"
   d="M746.5,144.3" />
		<path
   style="fill:#ffffff"
   id="path56"
   d="M824.6,139.1c-1,0.7-10.2,7-26.2,7c-20.6,0-32.1-10-32.1-32.3v-54h-15.1V41h15.3V7.3H790V41h29.8v18.8H790v50.1    c0,5.7,0.6,9.4,3.5,12.3c2.3,2.3,5.7,3.5,9.8,3.5c6.1,0,11.5-2,14.3-3.3L824.6,139.1z" />
		<path
   style="fill:#ffffff"
   id="path58"
   d="M826.8,144.3" />
	</g>
	<g
   style="fill:#ffffff"
   id="g68">
		<path
   style="fill:#ffffff"
   id="path62"
   d="M820.9,144.3" />
		<path
   style="fill:#ffffff"
   id="path64"
   d="M926.8,144.3h-23.7v-55c0-17-2.9-29.4-20.2-29.4c-20.6,0-22.1,19.1-22.1,32.3v52.1h-23.7V1.4h23.7v50.1    c4.6-6,13.7-12.7,27.4-12.7c14.1,0,22.7,4.3,28.6,10.2c10.1,10.1,10,26.6,10,32.7V144.3z" />
		<path
   style="fill:#ffffff"
   id="path66"
   d="M942.1,144.3" />
	</g>
	<g
   style="fill:#ffffff"
   id="g76">
		<path
   style="fill:#ffffff"
   id="path70"
   d="M931.5,144.3" />
		<path
   style="fill:#ffffff"
   id="path72"
   d="M1020.2,114.4c0,20.8-16.8,31.9-38.4,31.9c-25.1,0-41.9-11.6-43.5-13.3l10.2-16.8c10.8,7.4,22.7,11,33.3,11    c9.8,0,14.3-4.3,14.3-11.4c0-7.6-9-10-21.1-14.5c-16-5.9-31.9-11.2-31.9-30.3v-0.4c0-19.6,16.6-31.7,37.2-31.7    c12.9,0,27.2,3.5,38.2,10.8l-9,17.4c-10-6.1-20.8-9-28.2-9c-9,0-14.5,3.7-14.5,10.4c0,8.6,14.1,11.9,21.7,14.7    C1003.6,88.5,1020.2,95,1020.2,114.4z" />
		<path
   style="fill:#ffffff"
   id="path74"
   d="M1029.4,144.3" />
	</g>
	<g
   style="fill:#ffffff"
   id="g80">
		<path
   style="fill:#ffffff"
   id="path78"
   d="M530.7,144.3" />
	</g>
	<path
   style="fill:#ffffff"
   id="path82"
   d="M693.2,144.3h-23.7v-55c0-17-2.9-29.4-20.2-29.4c-20.6,0-22.1,19.1-22.1,32.3v52.1h-23.7v-55c0-17-3.5-29.4-20.8-29.4   c-18.6,0-21.5,16.6-21.5,29.4v55h-23.7V41h22.5v12.5c5.6-7.8,14.8-14.9,29.4-14.9c15.8,0,25.2,6.3,30.9,17.2   c5.2-7.1,15.9-17,34.3-17c14.1,0,22.7,4.3,28.6,10.2c10.1,10.1,10,26.6,10,32.7V144.3z" />
	<path
   style="fill:#ffffff"
   id="path84"
   d="M697.5,144.3" />
	<g
   style="fill:#ffffff"
   id="g92">
		<path
   style="fill:#ffffff"
   id="path86"
   d="M274.4,230.6" />
		<path
   style="fill:#ffffff"
   id="path88"
   d="M311.2,214.2c0,5.2-0.4,16.9-15.8,16.9c-15.2,0-15.6-12.7-15.6-16v-20.4h8.5v20.6c0,5.6,2.6,8.4,7.2,8.4    c7.3,0,7.2-6.2,7.2-8.1v-20.9h8.5V214.2z" />
		<path
   style="fill:#ffffff"
   id="path90"
   d="M316.5,230.6" />
	</g>
	<g
   style="fill:#ffffff"
   id="g100">
		<path
   style="fill:#ffffff"
   id="path94"
   d="M317.1,230.6" />
		<polygon
   style="fill:#ffffff"
   id="polygon96"
   points="354.3,230.6 347.7,230.6 330.9,208.6 330.9,230.6 322.9,230.6 322.9,194.8 330.2,194.8 346.5,216.3 346.5,194.8     354.3,194.8   " />
		<path
   style="fill:#ffffff"
   id="path98"
   d="M360.1,230.6" />
	</g>
	<g
   style="fill:#ffffff"
   id="g108">
		<path
   style="fill:#ffffff"
   id="path102"
   d="M360.8,230.6" />
		<rect
   style="fill:#ffffff"
   id="rect104"
   height="35.8"
   width="8.5"
   y="194.8"
   x="366.6" />
		<path
   style="fill:#ffffff"
   id="path106"
   d="M380.9,230.6" />
	</g>
	<g
   style="fill:#ffffff"
   id="g116">
		<path
   style="fill:#ffffff"
   id="path110"
   d="M381.5,230.6" />
		<polygon
   style="fill:#ffffff"
   id="polygon112"
   points="419.6,194.8 405.5,230.6 397.9,230.6 383.7,194.8 392.9,194.8 401.8,219.3 410.9,194.8   " />
		<path
   style="fill:#ffffff"
   id="path114"
   d="M421.8,230.6" />
	</g>
	<g
   style="fill:#ffffff"
   id="g124">
		<path
   style="fill:#ffffff"
   id="path118"
   d="M422.4,230.6" />
		<polygon
   style="fill:#ffffff"
   id="polygon120"
   points="454.4,230.6 428.2,230.6 428.2,194.8 454,194.8 454,201.6 436.6,201.6 436.6,209.2 451.9,209.2 451.9,215.9     436.6,215.9 436.6,223.7 454.4,223.7   " />
		<path
   style="fill:#ffffff"
   id="path122"
   d="M458,230.6" />
	</g>
	<g
   style="fill:#ffffff"
   id="g132">
		<path
   style="fill:#ffffff"
   id="path126"
   d="M460.1,230.6" />
		<path
   style="fill:#ffffff"
   id="path128"
   d="M497.1,230.6h-9.6l-8.3-12.6h-4.9v12.6H466v-35.8h13.8c2.8,0,8.2,0.1,11.4,3.3c1.6,1.6,3.3,4.1,3.3,8.4    c0,7.5-5.6,9.6-7,10L497.1,230.6z M486.5,206.6c0-4.8-4.4-5.1-7.6-5.1h-4.5v10.2h4.1C481.8,211.7,486.5,211.6,486.5,206.6z" />
		<path
   style="fill:#ffffff"
   id="path130"
   d="M499.8,230.6" />
	</g>
	<g
   style="fill:#ffffff"
   id="g140">
		<path
   style="fill:#ffffff"
   id="path134"
   d="M500.7,230.6" />
		<path
   style="fill:#ffffff"
   id="path136"
   d="M531.3,220.1c0,7.3-5.6,11.2-13.3,11.2c-7.4,0-12.7-2.8-14.2-4l3.3-6c1.3,0.6,5.7,3.2,10.9,3.2c3.9,0,5.3-1.5,5.3-3.8    c0-3.2-3.9-3.6-6.8-4.6c-4.7-1.5-11.8-3.6-11.8-11.3c0-6.5,5.2-10.6,13.2-10.6c6.1,0,11.3,2.5,12.4,3.4l-2.8,6    c-0.5-0.3-5.1-2.6-9.7-2.6c-3.5,0-5.1,1.2-5.1,3.5c0,2.5,3.4,3.5,7.5,4.7C525.5,210.8,531.3,213,531.3,220.1z" />
		<path
   style="fill:#ffffff"
   id="path138"
   d="M534.4,230.6" />
	</g>
	<g
   style="fill:#ffffff"
   id="g148">
		<path
   style="fill:#ffffff"
   id="path142"
   d="M536.2,230.6" />
		<rect
   style="fill:#ffffff"
   id="rect144"
   height="35.8"
   width="8.5"
   y="194.8"
   x="542.1" />
		<path
   style="fill:#ffffff"
   id="path146"
   d="M556.4,230.6" />
	</g>
	<g
   style="fill:#ffffff"
   id="g156">
		<path
   style="fill:#ffffff"
   id="path150"
   d="M556.7,230.6" />
		<polygon
   style="fill:#ffffff"
   id="polygon152"
   points="590.1,201.6 579,201.6 579,230.6 570.6,230.6 570.6,201.6 559.4,201.6 559.4,194.8 590.1,194.8   " />
		<path
   style="fill:#ffffff"
   id="path154"
   d="M592.9,230.6" />
	</g>
	<g
   style="fill:#ffffff"
   id="g164">
		<path
   style="fill:#ffffff"
   id="path158"
   d="M593.2,230.6" />
		<polygon
   style="fill:#ffffff"
   id="polygon160"
   points="631.5,194.8 618.2,216.4 618.2,230.6 609.7,230.6 609.7,216.4 596.3,194.8 606.2,194.8 614.3,208.4 622.7,194.8       " />
		<path
   style="fill:#ffffff"
   id="path162"
   d="M634.8,230.6" />
	</g>
	<g
   style="fill:#ffffff"
   id="g172">
		<path
   style="fill:#ffffff"
   id="path166"
   d="M634.8,230.6" />
		<path
   style="fill:#ffffff"
   id="path168"
   d="M699.1,212.7c0,10.2-8,18.5-19.1,18.5c-11.1,0-19-8.2-19-18.4v-0.1c0-10.2,8-18.5,19.1-18.5c11.1,0,19,8.2,19,18.4V212.7z     M690.4,212.8v-0.1c0-6.4-4.3-11.1-10.4-11.1c-6.2,0-10.3,4.6-10.3,10.9v0.1c0,6.2,4.2,11.1,10.4,11.1    C686.3,223.8,690.4,219.1,690.4,212.8z" />
		<path
   style="fill:#ffffff"
   id="path170"
   d="M703.1,230.6" />
	</g>
	<g
   style="fill:#ffffff"
   id="g180">
		<path
   style="fill:#ffffff"
   id="path174"
   d="M703.1,230.6" />
		<polygon
   style="fill:#ffffff"
   id="polygon176"
   points="734.1,201.6 717.4,201.6 717.4,209.8 731.8,209.8 731.8,216.5 717.4,216.5 717.4,230.6 708.9,230.6 708.9,194.8     734.1,194.8   " />
		<path
   style="fill:#ffffff"
   id="path178"
   d="M737.7,230.6" />
	</g>
	<g
   style="fill:#ffffff"
   id="g188">
		<path
   style="fill:#ffffff"
   id="path182"
   d="M737.7,230.6" />
		<polygon
   style="fill:#ffffff"
   id="polygon184"
   points="791.5,230.6 765.7,230.6 765.7,194.8 774.2,194.8 774.2,223.7 791.5,223.7   " />
		<path
   style="fill:#ffffff"
   id="path186"
   d="M793.6,230.6" />
	</g>
	<g
   style="fill:#ffffff"
   id="g196">
		<path
   style="fill:#ffffff"
   id="path190"
   d="M793.6,230.6" />
		<path
   style="fill:#ffffff"
   id="path192"
   d="M835.7,212.7c0,10.2-8,18.5-19.1,18.5c-11.1,0-19-8.2-19-18.4v-0.1c0-10.2,8-18.5,19.1-18.5c11.1,0,19,8.2,19,18.4V212.7z     M827,212.8v-0.1c0-6.4-4.3-11.1-10.4-11.1c-6.2,0-10.3,4.6-10.3,10.9v0.1c0,6.2,4.2,11.1,10.4,11.1    C822.9,223.8,827,219.1,827,212.8z" />
		<path
   style="fill:#ffffff"
   id="path194"
   d="M839.7,230.6" />
	</g>
	<g
   style="fill:#ffffff"
   id="g204">
		<path
   style="fill:#ffffff"
   id="path198"
   d="M839.7,230.6" />
		<polygon
   style="fill:#ffffff"
   id="polygon200"
   points="876.9,230.6 870.2,230.6 853.5,208.6 853.5,230.6 845.5,230.6 845.5,194.8 852.8,194.8 869.1,216.3 869.1,194.8     876.9,194.8   " />
		<path
   style="fill:#ffffff"
   id="path202"
   d="M882.7,230.6" />
	</g>
	<g
   style="fill:#ffffff"
   id="g208">
		<path
   style="fill:#ffffff"
   id="path206"
   d="M882.7,230.6" />
	</g>
	<g
   style="fill:#ffffff"
   id="g216">
		<path
   style="fill:#ffffff"
   id="path210"
   d="M883.3,230.6" />
		<path
   style="fill:#ffffff"
   id="path212"
   d="M922.9,212.7c0,4.9-1.7,9.4-4.9,12.6c-4.5,4.5-10,5.3-16.3,5.3h-12.6v-35.8h14.7c5.5,0,10.4,1.5,14,5.1    C921,203,922.9,207.5,922.9,212.7z M914,212.9c0-3.3-1-6.3-3-8.3c-2.9-2.9-6.3-3-8.5-3h-5v22.3h4.6c2.8,0,6.2-0.2,8.9-2.9    C913,219,914,216.3,914,212.9z" />
		<path
   style="fill:#ffffff"
   id="path214"
   d="M926.9,230.6" />
	</g>
	<g
   style="fill:#ffffff"
   id="g224">
		<path
   style="fill:#ffffff"
   id="path218"
   d="M926.9,230.6" />
		<path
   style="fill:#ffffff"
   id="path220"
   d="M969,212.7c0,10.2-8,18.5-19.1,18.5c-11.1,0-19-8.2-19-18.4v-0.1c0-10.2,8-18.5,19.1-18.5c11.1,0,19,8.2,19,18.4V212.7z     M960.3,212.8v-0.1c0-6.4-4.3-11.1-10.4-11.1c-6.2,0-10.3,4.6-10.3,10.9v0.1c0,6.2,4.2,11.1,10.4,11.1    C956.2,223.8,960.3,219.1,960.3,212.8z" />
		<path
   style="fill:#ffffff"
   id="path222"
   d="M973,230.6" />
	</g>
	<g
   style="fill:#ffffff"
   id="g232">
		<path
   style="fill:#ffffff"
   id="path226"
   d="M973,230.6" />
		<polygon
   style="fill:#ffffff"
   id="polygon228"
   points="1010.2,230.6 1003.5,230.6 986.8,208.6 986.8,230.6 978.8,230.6 978.8,194.8 986.1,194.8 1002.4,216.3     1002.4,194.8 1010.2,194.8   " />
		<path
   style="fill:#ffffff"
   id="path230"
   d="M1016,230.6" />
	</g>
</g>
</svg>