<?xml version="1.0" encoding="UTF-8" standalone="no"?>
<svg
   xmlns:dc="http://purl.org/dc/elements/1.1/"
   xmlns:cc="http://creativecommons.org/ns#"
   xmlns:rdf="http://www.w3.org/1999/02/22-rdf-syntax-ns#"
   xmlns:svg="http://www.w3.org/2000/svg"
   xmlns="http://www.w3.org/2000/svg"
   xmlns:sodipodi="http://sodipodi.sourceforge.net/DTD/sodipodi-0.dtd"
   xmlns:inkscape="http://www.inkscape.org/namespaces/inkscape"
   inkscape:version="1.0 (4035a4fb49, 2020-05-01)"
   sodipodi:docname="java.svg"
   id="Layer_1"
   viewBox="0 0 413.97672 234.63116"
   version="1.1"
   width="413.97672"
   height="234.63116">
  <sodipodi:namedview
     inkscape:snap-page="true"
     inkscape:current-layer="Layer_1"
     inkscape:window-maximized="1"
     inkscape:window-y="-11"
     inkscape:window-x="-11"
     inkscape:cy="108.00929"
     inkscape:cx="188.85646"
     inkscape:zoom="2.1482443"
     fit-margin-bottom="0"
     fit-margin-right="0"
     fit-margin-left="0"
     fit-margin-top="0"
     showgrid="false"
     id="namedview12"
     inkscape:window-height="986"
     inkscape:window-width="1920"
     inkscape:pageshadow="2"
     inkscape:pageopacity="0"
     guidetolerance="10"
     gridtolerance="10"
     objecttolerance="10"
     borderopacity="1"
     bordercolor="#666666"
     pagecolor="#ffffff" />
  <metadata
     id="metadata21">
    <rdf:RDF>
      <cc:Work
         rdf:about="">
        <dc:format>image/svg+xml</dc:format>
        <dc:type
           rdf:resource="http://purl.org/dc/dcmitype/StillImage" />
        <dc:title></dc:title>
      </cc:Work>
    </rdf:RDF>
  </metadata>
  <defs
     id="defs19" />
  <style
     id="style2">.st0,.st1{fill:#e92d2f;stroke:#e92d2f;stroke-width:9.375e-2;stroke-miterlimit:10}.st1{fill:#0774ba;stroke:#0774ba}</style>
  <rect
     ry="25"
     rx="24.999998"
     y="0"
     x="0"
     height="234.63116"
     width="413.97672"
     id="rect22"
     style="fill:#ffffff;stroke-width:1.08843" />
  <g
     transform="translate(39.999999,39.999999)"
     id="g20">
    <path
       style="fill:#e92d2f;fill-opacity:1"
       id="path4"
       d="m 72.031265,1.7850136 c 3.5,4 4.6,9.6000004 3.6,14.8000004 -1.1,5.8 -4.3,10.8 -8,15.2 -3,3.5 -6.5,6.6 -10.1,9.5 -4.2,3.4 -8.3,7 -10.9,11.8 -2.2,3.9 -2.7,8.6 -1.2,12.8 2.5,7.2 8.3,12.5 11.4,19.3 -3.5,-3.1 -6.9,-6.3 -10.1,-9.6 -3.3,-3.6 -6.5,-7.3 -8.6,-11.8 -1.4,-3.1 -2,-6.8 -1,-10.1 1.1,-3.4 3.5,-6.1 5.9,-8.6 6.7,-6.7 15,-11.7 21.6,-18.5 3.6,-3.7 6.6,-8.2 7.7,-13.4 0.9,-3.8000004 0.5,-7.7000004 -0.3,-11.4000004 z"
       class="st0" />
    <path
       style="fill:#e92d2f;fill-opacity:1"
       id="path6"
       d="m 66.531265,44.085014 c 7.2,-5.3 15.6,-8.7 24.2,-11.1 -6.8,4.3 -13.8,8.2 -19.6,13.8 -2.1,2 -4.1,4.4 -5,7.2 -0.7,2.1 -0.4,4.5 0.4,6.5 1.6,3.6 4.2,6.5 6.2,9.7 1.7,2.8 2,6.3 0.7,9.4 -2,4.4 -5.8,7.6 -9.8,10.2 -0.5,0.3 -1,0.9 -1.6,0.9 2.7,-2.4 4.8,-5.8 4.7,-9.5 -0.1,-2.7 -1.6,-5.2 -3.4,-7.1 -3.7,-4.4 -6.8,-9.9 -6.1,-15.8 0.5,-6.1 4.7,-10.8 9.3,-14.2 z"
       class="st0" />
    <path
       style="fill:#0774ba;stroke:#0774ba"
       id="path8"
       d="m 92.031265,86.985014 c 1.6,-1.9 4,-2.4 6.3,-2.7 3.900005,-0.5 8.100005,0.5 11.100005,3.2 2.5,2.2 3.8,5.6 3.3,8.9 -0.6,3.799996 -3.1,6.999996 -6,9.399996 -5.2,4.2 -11.700005,6.6 -18.100005,8.3 0.4,-0.4 0.8,-0.8 1.3,-1.1 4.9,-2.6 9.8,-5.7 13.400005,-10 2.2,-2.7 3.9,-6.199996 3.2,-9.699996 -0.7,-4.1 -4.7,-7.1 -8.800005,-7.3 -2,-0.1 -3.8,0.6 -5.7,1 z m -74.6,3.4 c 6.8,-2.9 14.3,-4.8 21.7,-4.7 -4.3,1.3 -8.8,2.3 -12.9,4.3 -1,0.5 -2.1,1 -2.6,2 -0.3,0.8 0.5,1.3 1.1,1.6 2.5,1 5.3,1.2 8,1.4 9.5,0.6 19,0.3 28.5,-0.3 9.4,-0.6 18.6,-1.9 27.9,-3.3 -2,1 -4.1,1.9 -6,3.2 -1,0.7 -2.2,0.9 -3.2,1.1 -11.4,2.5 -23,3.3 -34.6,3.5 -4.5,0 -8.9,0 -13.4,-0.3 -5,-0.3 -10,-0.7 -14.8,-2 -1.4,-0.4 -2.9,-0.9 -4,-1.9 -0.6,-0.4 -0.6,-1.3 -0.1,-1.9 1.2,-1.4 2.9,-2 4.4,-2.7 z m 8.8,15.799996 c 1.9,-1.5 4.2,-2.4 6.5,-3.2 -0.7,0.9 -1.8,1.7 -1.9,3 0,0.8 0.6,1.4 1.2,1.7 1.2,0.6 2.6,0.9 4,1 7.1,0.7 14.3,1.2 21.5,0.7 6.6,-0.3 13.1,-1.4 19.6,-2.6 1.8,1.7 3.9,2.8 6.1,3.8 -7.8,2.3 -15.9,3.6 -24,4.3 -7.6,0.5 -15.4,0.5 -23,-0.7 -3,-0.6 -6.1,-1.2 -8.8,-2.6 -1.1,-0.6 -2.4,-1.4 -2.7,-2.7 -0.2,-1.1 0.7,-2.1 1.5,-2.7 z m 4.3,16.2 c 1.7,-1.4 3.8,-2.1 5.9,-2.7 -0.7,0.6 -1.9,1.4 -1.3,2.5 1,1.3 2.9,1.4 4.3,1.8 6.3,0.8 12.6,1.3 18.9,0.8 4.8,-0.3 9.4,-1.2 14.1,-2 2.7,1.6 5.5,2.9 8.3,4.1 -4.4,2 -9.1,3.2 -13.8,4.1 -7.9,1.4 -16.1,1.6 -24.1,0.3 -3.5,-0.6 -7.1,-1.4 -10.3,-3.2 -1.2,-0.7 -2.5,-1.5 -3,-2.9 -0.5,-1 0.1,-2.1 1,-2.8 z"
       class="st1" />
    <path
       style="fill:#0774ba;stroke:#0774ba"
       id="path10"
       d="m 9.9312653,132.88501 c 3.3999997,-1.2 6.8999997,-2.1 10.4999997,-2.2 1.4,0 2.9,0 4.2,0.8 -4.3,0.3 -8.6,1.3 -12.5,3.3 -0.9,0.5 -1.8,1 -2.1999997,2 0,1.2 1.2999997,1.5 2.1999997,1.9 5.4,2 11.1,2.6 16.8,3.2 16.8,1.4 33.7,1 50.6,-0.5 6.3,-0.7 12.7,-1.4 18.9,-3.2 2.000005,-0.7 4.200005,-1.3 5.500005,-3.1 0.8,-1 0.3,-2.3 -0.5,-3.2 1.3,0.7 3,1.6 2.8,3.3 -0.5,1.8 -2.3,2.7 -3.8,3.6 -4.800005,2.4 -10.000005,3.6 -15.200005,4.7 -15.1,3 -30.6,3.6 -45.9,3.2 -11.6,-0.4 -23.2,-1.5 -34.5999997,-3.5 -2,-0.5 -4.3,-0.9 -5.80000001,-2.5 -1,-1.1 -0.1,-2.7 0.80000001,-3.5 2.3,-2 5.3,-3.2 8.2,-4.3 z"
       class="st1" />
    <path
       style="fill:#0774ba;stroke:#0774ba"
       id="path12"
       d="m 102.43127,145.58501 c 3.7,-1.3 7.8,-2.7 10.5,-5.6 -0.5,3.2 -3.3,5.5 -6,6.9 -5.3,2.7 -11.200005,4 -17.000005,5 -12.4,2 -25,2.4 -37.6,2.2 -8.6,-0.3 -17.2,-0.6 -25.6,-2.4 -2,-0.6 -4.2,-0.9 -5.9,-2.1 7.5,1.3 15.1,1.8 22.7,2.1 12.5,0.4 25.1,-0.1 37.5,-1.7 7.2,-1 14.4,-2.2 21.400005,-4.4 z"
       class="st1" />
    <path
       style="fill:#e92d2f;fill-opacity:1;stroke-width:1"
       id="path14"
       d="M 155.05305,93.540843 V 31.749365 c 4.24059,0.15145 8.48118,0 12.87322,0.15145 v 69.212515 c -0.15145,6.51233 -0.3029,13.17612 -3.33189,19.08266 -3.48335,6.20943 -9.54133,10.45003 -16.20512,13.02467 -2.1203,-2.27175 -3.93769,-4.69494 -6.05799,-6.96669 5.30074,-3.02899 10.60148,-7.42103 11.81308,-13.78192 1.06015,-6.36089 0.75725,-12.57032 0.9087,-18.931207 z m 24.6863,-36.953727 c 8.48118,-3.634793 17.87106,-5.452189 27.10949,-4.543491 4.84639,0.605799 9.69278,2.271746 12.87323,6.209438 2.57464,3.331893 3.48334,7.421035 3.48334,11.510177 v 42.10301 h -9.54133 l -0.9087,-6.36088 c -3.63479,2.87754 -7.42103,5.45218 -11.81307,6.66378 -5.14929,1.36305 -10.60148,1.2116 -15.59932,-0.75725 -3.78625,-1.51449 -6.81524,-4.99784 -7.87539,-9.08698 -1.5145,-5.906533 -0.75725,-12.721769 3.3319,-17.41671 3.63479,-4.392041 9.23843,-6.512337 14.84207,-7.421035 5.14929,-1.060148 10.29858,-1.060148 15.44787,-1.060148 -0.15145,-3.937692 0.60579,-8.329734 -1.66595,-11.813077 -1.8174,-2.726094 -5.14929,-3.786242 -8.17829,-3.937692 -6.66378,-0.605799 -13.32757,1.060148 -19.68846,3.331893 -0.6058,-2.423195 -1.21159,-4.99784 -1.81739,-7.421035 m 15.59932,29.078343 c -2.7261,0.908698 -5.30074,2.877544 -6.05799,5.755088 -0.9087,3.180444 -0.6058,6.966686 1.5145,9.692783 1.96884,2.57464 5.60363,3.33189 8.78408,2.87754 4.39204,-0.45435 8.17828,-3.02899 11.66162,-5.755086 V 84.150962 c -5.45218,0 -10.90437,-0.3029 -15.90221,1.514497 z m 94.80751,-29.078343 c 8.48118,-3.634793 18.02251,-5.603639 27.26094,-4.543491 4.69495,0.605799 9.38989,2.271746 12.41888,5.906538 2.87754,3.483344 3.78624,8.026835 3.63479,12.418876 0,13.933372 0,27.715295 -0.15145,41.497211 -3.18044,-0.15145 -6.20943,0 -9.38988,-0.15145 -0.3029,-2.12029 -0.6058,-4.24059 -0.9087,-6.20943 -4.39204,3.78624 -9.69278,6.81523 -15.59932,7.26958 -5.45218,0.45435 -11.66162,-0.15145 -15.90221,-4.08914 -4.39205,-4.08914 -5.14929,-10.904375 -4.08915,-16.508014 1.06015,-5.30074 4.99784,-9.541331 9.84423,-11.964527 7.42104,-3.634792 16.05367,-3.786242 24.23196,-3.786242 -0.15145,-3.786243 0.6058,-7.875385 -1.36305,-11.358728 -1.5145,-2.726094 -4.69494,-4.089142 -7.72394,-4.392041 -6.96668,-0.757248 -13.93337,1.060148 -20.4457,3.331893 -0.6058,-2.423195 -1.2116,-4.99784 -1.8174,-7.421035 m 15.29642,29.078343 c -2.57465,0.908698 -5.14929,2.877544 -5.90654,5.603638 -0.9087,3.180444 -0.6058,6.966687 1.36305,9.692783 2.12029,2.72609 5.75509,3.33189 8.93553,2.87754 4.39204,-0.6058 8.32973,-3.02899 11.51018,-5.906536 -0.15145,-4.543491 0,-9.238431 0,-13.933372 -5.30074,0.15145 -10.75293,-0.15145 -15.90222,1.665947 z M 230.32355,52.800874 h 13.17612 c 2.57465,8.329733 5.14929,16.508017 7.72394,24.83775 1.51449,5.14929 3.33189,10.14713 4.39204,15.29642 0.6058,2.271746 1.06014,4.694941 1.81739,6.966686 5.45219,-15.296419 9.54133,-31.047188 11.66163,-47.100856 h 12.87322 c -3.63479,20.294259 -9.54133,40.43707 -18.32541,59.065376 H 248.64896 C 242.43952,92.177796 236.38154,72.489335 230.32355,52.800874 Z"
       class="st0" />
  </g>
</svg>
