<?xml version="1.0" encoding="UTF-8" standalone="no"?>
<svg
   xmlns:dc="http://purl.org/dc/elements/1.1/"
   xmlns:cc="http://creativecommons.org/ns#"
   xmlns:rdf="http://www.w3.org/1999/02/22-rdf-syntax-ns#"
   xmlns:svg="http://www.w3.org/2000/svg"
   xmlns="http://www.w3.org/2000/svg"
   viewBox="0 0 356 418.66666"
   height="342.93292986"
   width="291.602209333"
   xml:space="preserve"
   id="svg2"
   version="1.1"><metadata
     id="metadata8"><rdf:RDF><cc:Work
         rdf:about=""><dc:format>image/svg+xml</dc:format><dc:type
           rdf:resource="http://purl.org/dc/dcmitype/StillImage" /><dc:title></dc:title></cc:Work></rdf:RDF></metadata><defs
     id="defs6" /><g
     transform="matrix(1.3333333,0,0,-1.3333333,0,418.66667)"
     id="g10"><path
       d="m 53.6684,72.2582 h 7.6132 L 67.318,56.359 73.7086,72.2582 h 7.6937 L 85.9,42.5121 H 78.1672 L 75.9965,59.634 H 75.918 L 68.7781,42.5121 H 65.7012 L 58.8766,59.634 h -0.0801 l -2.486,-17.1219 h -7.6917 l 5.0496,29.7461"
       style="fill:#ffffff;fill-opacity:1;fill-rule:nonzero;stroke:none;stroke-width:0.1"
       id="path14" /><path
       d="m 104.917,63.0648 h -0.079 l -3.196,-9.4668 h 6.432 z M 99.5129,47.6789 97.4613,42.5121 h -8.2062 l 11.4419,29.7461 h 8.441 l 11.203,-29.7461 h -8.243 l -1.934,5.1668 H 99.5129"
       style="fill:#ffffff;fill-opacity:1;fill-rule:nonzero;stroke:none;stroke-width:0.1"
       id="path16" /><path
       d="m 131.666,49.0609 h 9.27 v -6.5488 h -17.003 v 29.7461 h 7.733 V 49.0609"
       style="fill:#ffffff;fill-opacity:1;fill-rule:nonzero;stroke:none;stroke-width:0.1"
       id="path18" /><path
       d="m 151.078,72.2582 h 7.613 l 6.037,-15.8992 6.39,15.8992 h 7.694 l 4.498,-29.7461 h -7.733 l -2.171,17.1219 h -0.078 l -7.14,-17.1219 h -3.077 l -6.825,17.1219 h -0.08 L 153.72,42.5121 h -7.692 l 5.05,29.7461"
       style="fill:#ffffff;fill-opacity:1;fill-rule:nonzero;stroke:none;stroke-width:0.1"
       id="path20" /><path
       d="m 210.887,78.5309 c 0,-2.1707 -1.736,-3.8668 -3.867,-3.8668 -2.169,0 -3.905,1.6961 -3.905,3.8668 0,2.13 1.736,3.8652 3.905,3.8652 2.131,0 3.867,-1.7352 3.867,-3.8652 z M 193.528,57.898 c 0,-5.1281 3.787,-8.8761 8.403,-8.8761 4.615,0 8.404,3.748 8.404,8.8761 0,4.1032 -3.789,7.8508 -8.404,7.8508 -4.616,0 -8.403,-3.7476 -8.403,-7.8508 z m 7.26,20.6329 c 0,-2.1707 -1.736,-3.8668 -3.868,-3.8668 -2.169,0 -3.904,1.6961 -3.904,3.8668 0,2.13 1.735,3.8652 3.904,3.8652 2.132,0 3.868,-1.7352 3.868,-3.8652 z m 17.593,-20.5938 c 0,-9.625 -6.903,-16.4109 -16.45,-16.4109 -9.548,0 -16.451,6.7859 -16.451,16.4109 0,8.9961 7.89,15.3078 16.451,15.3078 8.561,0 16.45,-6.3117 16.45,-15.3078"
       style="fill:#ffffff;fill-opacity:1;fill-rule:nonzero;stroke:none;stroke-width:0.1"
       id="path22" /><path
       d="m 203.304,1.32813 h -7.733 V 31.075 h 7.733 V 1.32813"
       style="fill:#ffffff;fill-opacity:1;fill-rule:nonzero;stroke:none;stroke-width:0.1"
       id="path24" /><path
       d="M 221.662,1.32813 H 213.93 V 24.5262 h -6.391 v 6.5488 h 20.514 v -6.5488 h -6.391 V 1.32813"
       style="fill:#ffffff;fill-opacity:1;fill-rule:nonzero;stroke:none;stroke-width:0.1"
       id="path26" /><path
       d="m 229.556,31.075 h 9.271 l 5.563,-8.0879 5.562,8.0879 h 9.271 L 248.256,15.6102 V 1.32813 h -7.733 V 15.6102 L 229.556,31.075"
       style="fill:#ffffff;fill-opacity:1;fill-rule:nonzero;stroke:none;stroke-width:0.1"
       id="path28" /><path
       d="M 33.7352,31.0738 V 14.348 c 0,-3.8289 -0.1559,-7.61597 -3.1157,-10.49487 -2.4855,-2.44727 -6.3898,-3.314067 -9.8621,-3.314067 -3.4722,0 -7.3769,0.866797 -9.8629,3.314067 C 7.93516,6.73203 7.77695,10.5191 7.77695,14.348 V 31.0738 H 15.5098 V 15.4121 c 0,-3.8672 0.2757,-8.0871 5.2476,-8.0871 4.9692,0 5.2469,4.2199 5.2469,8.0871 v 15.6617 h 7.7309"
       style="fill:#ffffff;fill-opacity:1;fill-rule:nonzero;stroke:none;stroke-width:0.1"
       id="path30" /><path
       d="m 39.0238,31.0738 h 7.7328 L 60.9195,12.8871 h 0.0785 v 18.1867 h 7.7329 V 1.32813 H 60.998 L 46.8355,19.5539 H 46.7566 V 1.32813 H 39.0238 V 31.0738"
       style="fill:#ffffff;fill-opacity:1;fill-rule:nonzero;stroke:none;stroke-width:0.1"
       id="path32" /><path
       d="M 81.7523,1.32813 H 74.0195 V 31.0738 h 7.7328 V 1.32813"
       style="fill:#ffffff;fill-opacity:1;fill-rule:nonzero;stroke:none;stroke-width:0.1"
       id="path34" /><path
       d="m 100.45,13.0051 7.22,18.0687 h 8.402 L 103.37,1.32813 H 97.373 L 84.8684,31.0738 h 8.4019 L 100.45,13.0051"
       style="fill:#ffffff;fill-opacity:1;fill-rule:nonzero;stroke:none;stroke-width:0.1"
       id="path36" /><path
       d="m 126.925,24.525 v -4.9711 h 8.718 v -6.5488 h -8.718 V 7.87695 h 9.192 V 1.32813 H 119.192 V 31.0738 h 16.925 V 24.525 h -9.192"
       style="fill:#ffffff;fill-opacity:1;fill-rule:nonzero;stroke:none;stroke-width:0.1"
       id="path38" /><path
       d="m 149.808,17.7391 h 0.749 c 2.525,0 5.365,0.4738 5.365,3.7089 0,3.234 -2.84,3.7071 -5.365,3.7071 h -0.749 z M 166.81,1.32813 h -9.626 L 149.886,12.768 h -0.078 V 1.32813 h -7.734 V 31.0738 h 11.56 c 5.877,0 10.336,-2.8008 10.336,-9.1519 0,-4.1039 -2.288,-7.6547 -6.51,-8.4039 l 9.35,-12.18987"
       style="fill:#ffffff;fill-opacity:1;fill-rule:nonzero;stroke:none;stroke-width:0.1"
       id="path40" /><path
       d="m 186.417,23.4211 c -1.42,1.1828 -3.235,1.9711 -5.129,1.9711 -1.419,0 -3.314,-0.8281 -3.314,-2.4863 0,-1.734 2.092,-2.4047 3.433,-2.8399 l 1.973,-0.5898 c 4.141,-1.2242 7.337,-3.3141 7.337,-8.1274 0,-2.95896 -0.71,-5.99685 -3.076,-8.00896 -2.329,-1.97265 -5.445,-2.800777 -8.444,-2.800777 -3.748,0 -7.416,1.262887 -10.453,3.391797 l 3.313,6.23394 c 1.932,-1.69683 4.222,-3.07691 6.864,-3.07691 1.815,0 3.748,0.90625 3.748,2.99801 0,2.1692 -3.037,2.9192 -4.695,3.393 -4.852,1.3813 -8.048,2.6441 -8.048,8.402 0,6.0363 4.3,9.982 10.258,9.982 2.998,0 6.666,-0.9469 9.31,-2.4469 l -3.077,-5.9949"
       style="fill:#ffffff;fill-opacity:1;fill-rule:nonzero;stroke:none;stroke-width:0.1"
       id="path42" /><path
       d="m 48.4605,123.009 v 144.4 L 190.193,313.461 218.54,291.314 76.807,245.263 V 100.862 l -28.3465,22.147"
       style="fill:#ed1639;fill-opacity:1;fill-rule:nonzero;stroke:none;stroke-width:0.1"
       id="path44" /><path
       d="M 133.5,232.326 V 119.283 l -28.347,22.147 v 81.686 l 28.347,9.21"
       style="fill:#ed1639;fill-opacity:1;fill-rule:nonzero;stroke:none;stroke-width:0.1"
       id="path46" /><path
       d="m 161.847,241.537 28.346,9.209 V 137.704 l -28.346,22.147 v 81.686"
       style="fill:#ed1639;fill-opacity:1;fill-rule:nonzero;stroke:none;stroke-width:0.1"
       id="path48" /></g></svg>